<?xml version="1.0" encoding="UTF-8" standalone="no"?>
<!-- Created with Inkscape (http://www.inkscape.org/) -->

<svg
   width="138.20619mm"
   height="148.22002mm"
   viewBox="0 0 138.20619 148.22002"
   version="1.1"
   id="svg1"
   xml:space="preserve"
   xmlns="http://www.w3.org/2000/svg"
   xmlns:svg="http://www.w3.org/2000/svg"><defs
     id="defs1"><linearGradient
       id="swatch49"><stop
         style="stop-color:#ffcc00;stop-opacity:1;"
         offset="0"
         id="stop50" /></linearGradient></defs><path
     style="display:inline;fill:#1a1a1a"
     d="m 106.77778,148.01764 c -0.26707,-0.32086 0.0131,-0.57161 1.61101,-1.44186 1.74396,-0.94978 3.3619,-2.6044 4.15562,-4.24981 1.14199,-2.36737 1.51275,-5.2223 1.75687,-13.5283 0.19898,-6.76983 0.20395,-20.63581 0.007,-20.94537 -0.0847,-0.1335 -0.58597,-0.29805 -1.12782,-0.37024 -0.53642,-0.0715 -7.26778,-0.17705 -14.958566,-0.23464 -14.81636,-0.11094 -21.78041,0.0293 -22.19245,0.44684 -0.33405,0.33852 -0.51122,16.24013 -0.26582,23.85852 0.27216,8.44912 0.65207,10.20151 2.59977,11.99161 0.96734,0.88906 1.82992,1.30187 4.95419,2.37097 2.73002,0.93419 3.01435,1.06919 3.01435,1.43126 0,0.51235 -0.64279,0.6041 -2.31559,0.3305 -5.31999,-0.87011 -12.08932,-1.36763 -16.10546,-1.1837 -2.73701,0.12535 -4.53776,0.31076 -8.328256,0.8575 -1.587121,0.22893 -3.282695,0.39347 -3.767943,0.36566 -0.812368,-0.0466 -0.882268,-0.0832 -0.882268,-0.46215 0,-0.37176 0.127868,-0.44699 1.321924,-0.77774 2.894849,-0.80186 5.022263,-2.22234 5.992933,-4.0015 1.63335,-2.99382 1.86645,-7.36341 1.86536,-34.967 -9.7e-4,-24.647211 -0.17287,-28.517101 -1.31074,-29.508881 l -0.42624,-0.37151 -0.87473,0.34929 c -6.751834,2.69608 -12.14021,3.81674 -18.351631,3.81674 -6.074437,0 -11.776245,-1.19429 -17.69056,-3.70542 C 19.05262,75.368245 15.118895,72.761299 10.936782,68.464129 6.0131748,63.405066 3.0628028,57.891784 1.2711798,50.402278 -1.1270552,40.37695 -0.11867416,30.464533 4.1843388,21.765835 7.2640978,15.539987 11.699086,10.512168 17.253491,6.9497068 24.108924,2.5527988 31.396239,0.38845679 40.531003,0.03625679 c 4.881021,-0.188193 8.647707,0.328201 16.11762,2.20964801 5.617151,1.414793 6.783631,1.582175 8.066131,1.157436 0.83002,-0.274883 0.88816,-0.274619 1.19851,0.0054 0.31703,0.286073 0.32497,0.563369 0.28296,9.8897712 -0.0427,9.483207 -0.0473,9.598119 -0.38859,9.824076 -0.60011,0.397259 -0.88449,-0.0135 -1.25235,-1.808941 C 62.898764,13.228446 57.93437,7.4504278 50.530309,4.9900898 c -2.646852,-0.879537 -4.133431,-1.086439 -7.822273,-1.088699 -2.876729,-0.0018 -3.605772,0.05269 -5.167194,0.385943 -2.490013,0.531442 -4.021968,1.056568 -6.424174,2.20209 -9.67653,4.6143752 -16.010252,14.2196182 -17.735091,26.8956972 -0.372695,2.738986 -0.371067,8.281524 0.0033,11.256446 1.189945,9.455775 4.437115,16.697033 10.545457,23.516594 3.17573,3.545493 8.436642,6.995598 12.748988,8.360778 7.10566,2.24949 13.97672,1.24622 18.127111,-2.646797 0.861186,-0.807783 1.526748,-1.612876 1.898519,-2.296536 l 0.572456,-1.052706 0.05195,-7.847888 c 0.0553,-8.353537 -0.07062,-10.866766 -0.648303,-12.940124 -0.479343,-1.720395 -1.065885,-2.737947 -2.279093,-3.953844 -1.906289,-1.910515 -5.791019,-3.414439 -9.851826,-3.814012 -1.489221,-0.146535 -1.925838,-0.407105 -1.925838,-1.149325 0,-0.308067 0.112028,-0.652826 0.24895,-0.76613 0.284637,-0.23554 2.239935,-0.161583 7.705596,0.291454 4.588172,0.380305 14.00764,0.364547 18.50478,-0.03096 1.79605,-0.157954 4.35983,-0.328829 5.69728,-0.379722 2.14394,-0.08158 2.45934,-0.05936 2.66504,0.187773 0.34145,0.410223 -0.009,0.675977 -1.32883,1.006328 -2.66366,0.666951 -5.10975,2.426247 -6.01521,4.326326 -1.1373,2.386549 -1.44249,6.464097 -1.28279,17.138744 0.0985,6.583501 0.13555,7.284695 0.39591,7.490192 0.36589,0.288782 7.45007,0.156639 11.59109,-0.216212 4.1186,-0.370832 6.45973,-0.403337 6.77009,-0.094 0.43144,0.430029 0.0326,0.699122 -1.40247,0.946231 -1.63455,0.281457 -4.03558,1.054988 -5.53025,1.781658 -2.02716,0.985557 -3.35258,2.752974 -4.0222,5.36354 -0.57263,2.23245 -0.70076,4.63212 -0.78496,14.70085 -0.0719,8.595331 -0.0503,9.894191 0.16945,10.185551 0.24921,0.33049 0.44741,0.33396 19.09906,0.33396 17.869436,0 18.862746,-0.0155 19.146266,-0.29815 0.2806,-0.27978 0.29903,-0.93311 0.29903,-10.603001 0,-9.04625 -0.0362,-10.53229 -0.29644,-12.16698 -0.4781,-3.00325 -1.12514,-4.55575 -2.50501,-6.010513 -1.37546,-1.450109 -3.05488,-2.355216 -5.82295,-3.138216 -1.12692,-0.31877 -1.25599,-0.397568 -1.25599,-0.766848 0,-0.382145 0.0665,-0.415081 0.93006,-0.46067 0.51153,-0.027 2.80998,0.146327 5.10766,0.385182 7.4051,0.769794 12.89034,0.743073 20.92401,-0.10193 4.94196,-0.519808 6.00208,-0.474104 5.72464,0.246802 -0.0535,0.139115 -0.4215,0.331439 -0.81769,0.427388 -6.28173,1.521288 -8.53435,3.694849 -9.33634,9.008665 -0.33288,2.20561 -0.50401,6.73502 -0.70727,18.71944 -0.26183,15.437871 -0.26021,35.092761 0.003,38.070611 0.41914,4.7396 1.13596,6.41518 3.35063,7.8322 0.9649,0.61736 3.78211,1.55792 6.04144,2.017 1.98988,0.40433 2.13424,0.45461 2.2625,0.78787 0.33843,0.87937 -0.795,0.9095 -6.99306,0.1859 -4.1307,-0.48224 -5.00904,-0.53151 -9.4921,-0.53242 -5.33836,-0.001 -6.67493,0.12028 -11.78729,1.07035 -3.10572,0.57716 -2.85712,0.55619 -3.10229,0.26164 z"
     id="path12" /></svg>
