<?xml version="1.0" encoding="utf-8"?>
<!-- Generator: Adobe Illustrator 16.0.0, SVG Export Plug-In . SVG Version: 6.00 Build 0)  -->
<!DOCTYPE svg PUBLIC "-//W3C//DTD SVG 1.1//EN" "http://www.w3.org/Graphics/SVG/1.1/DTD/svg11.dtd">
<svg version="1.1" id="Layer_1" xmlns="http://www.w3.org/2000/svg" xmlns:xlink="http://www.w3.org/1999/xlink" x="0px" y="0px"
	 width="401.417px" height="343.438px" viewBox="74.898 84.127 401.417 343.438"
	 enable-background="new 74.898 84.127 401.417 343.438" xml:space="preserve">
<g>
	<path fill="none" stroke="#000000" stroke-width="12" stroke-miterlimit="10" d="M161.096,174.357l-79.17,195.972
		c0,0,17.109,50.287,79.169,50.287c62.06,0,79.168-50.287,79.168-50.287L161.096,174.357z"/>
</g>
<g>
	<path fill="none" stroke="#000000" stroke-width="12" stroke-miterlimit="10" d="M390.032,174.39l-79.168,195.944
		c0,0,17.108,50.281,79.168,50.281s79.168-50.281,79.168-50.281L390.032,174.39z"/>
</g>
<line fill="none" stroke="#000000" stroke-width="18" stroke-miterlimit="10" x1="161.096" y1="167.335" x2="390.032" y2="167.335"/>
<line fill="none" stroke="#000000" stroke-width="30" stroke-linecap="round" stroke-miterlimit="10" x1="275.565" y1="159.182" x2="275.565" y2="100.178"/>
<polygon points="81.586,371.581 239.732,371.581 225.9,396.875 201.15,413.254 173.488,420.616 144.22,419.711 112.706,409.979 
	92.869,393.418 81.586,378.131 "/>
<polygon points="310.958,371.581 469.104,371.581 455.274,396.875 430.524,413.254 402.861,420.616 373.593,419.711 
	342.079,409.979 322.243,393.418 310.958,378.131 "/>
</svg>
